<svg width="39" height="39" viewBox="0 0 39 39" fill="none" xmlns="http://www.w3.org/2000/svg">
<g clip-path="url(#clip0_46_527)">
<path d="M21.45 17.55V9.75H17.55V17.55H9.75V21.45H17.55V29.25H21.45V21.45H29.25V17.55H21.45ZM19.5 39C14.3283 39 9.36838 36.9455 5.71142 33.2886C2.05446 29.6316 0 24.6717 0 19.5C0 14.3283 2.05446 9.36838 5.71142 5.71142C9.36838 2.05446 14.3283 0 19.5 0C24.6717 0 29.6316 2.05446 33.2886 5.71142C36.9455 9.36838 39 14.3283 39 19.5C39 24.6717 36.9455 29.6316 33.2886 33.2886C29.6316 36.9455 24.6717 39 19.5 39Z" fill="#F3F3F3"/>
</g>
<defs>
<clipPath id="clip0_46_527">
<rect width="39" height="39" fill="white"/>
</clipPath>
</defs>
</svg>
