<svg width="16" height="17" viewBox="0 0 16 17" fill="none" xmlns="http://www.w3.org/2000/svg">
<path d="M12 3.4H16V5.1H14.4V16.15C14.4 16.3754 14.3157 16.5916 14.1657 16.751C14.0157 16.9104 13.8122 17 13.6 17H2.4C2.18783 17 1.98434 16.9104 1.83431 16.751C1.68429 16.5916 1.6 16.3754 1.6 16.15V5.1H0V3.4H4V0.85C4 0.624566 4.08429 0.408365 4.23431 0.248959C4.38434 0.0895533 4.58783 0 4.8 0H11.2C11.4122 0 11.6157 0.0895533 11.7657 0.248959C11.9157 0.408365 12 0.624566 12 0.85V3.4ZM12.8 5.1H3.2V15.3H12.8V5.1ZM9.1312 10.2L10.5456 11.7028L9.4144 12.9047L8 11.4019L6.5856 12.9047L5.4544 11.7028L6.8688 10.2L5.4544 8.6972L6.5856 7.4953L8 8.9981L9.4144 7.4953L10.5456 8.6972L9.1312 10.2ZM5.6 1.7V3.4H10.4V1.7H5.6Z" fill="#F3F3F3"/>
</svg>
