<svg width="512" height="512" xmlns="http://www.w3.org/2000/svg" fill="none">

 <g>
  <title>Layer 1</title>
  <g transform="rotate(-45.0799 260.532 315.48)" stroke="null" id="svg_21">
   <path stroke="null" id="svg_1" fill="#FF7124" d="m470.60167,102.77351c11.51657,43.60245 9.86619,90.02814 -4.93911,132.83571l-0.01111,0l-126.23802,-127.82335l0,-0.01153c42.2768,-14.99118 88.1265,-16.66199 131.18824,-5.00084z"/>
   <path stroke="null" id="svg_2" fill="#F2D59F" d="m118.33446,323.12509l99.16546,-116.86465l0.01111,0l38.36143,-45.21591c24.38733,-24.6935 53.03067,-42.4502 83.54098,-53.27009l0,0.01153l126.23802,127.82325l0.01111,0c-10.68537,30.89242 -28.22218,59.89536 -52.60951,84.58886l-44.65472,38.84304l-115.42769,100.41044l-33.65002,-34.07342l-33.66205,-34.08373l-33.66205,-34.08466l-33.66205,-34.08466zm234.3135,-16.74288c22.96465,-23.24172 22.96465,-60.94413 0,-84.18585c-22.95354,-23.25296 -60.18849,-23.25296 -83.14204,0c-22.96465,23.24172 -22.96465,60.94413 0,84.18585c22.95354,23.25296 60.18849,23.25296 83.14204,0z"/>
   <path stroke="null" id="svg_3" fill="#F2D59F" d="m368.39832,359.04112c1.9799,52.54457 -16.8426,105.7574 -56.45639,145.86759c-12.16543,12.30692 -25.53695,22.64282 -39.74986,30.98521l-19.22144,-76.44236l115.42769,-100.41044z"/>
   <path stroke="null" id="svg_4" fill="#8ECAC1" d="m352.64796,222.19636c22.96465,23.24172 22.96465,60.94413 0,84.18585c-22.95354,23.25296 -60.18849,23.25296 -83.14204,0c-22.96465,-23.24172 -22.96465,-60.94413 0,-84.18585c22.95354,-23.25296 60.18849,-23.25296 83.14204,0z"/>
   <path stroke="null" id="svg_5" fill="#E6B263" d="m252.97063,459.45156l-45.45168,16.95001c-12.49496,4.66653 -26.52644,1.54457 -35.93723,-7.99654l-7.79558,-7.89345l55.53447,-35.13344l33.65002,34.07342z"/>
   <path stroke="null" id="svg_6" fill="#E6B263" d="m219.32061,425.37814l-55.53447,35.13344l-0.01111,0l-23.23864,-23.52945l45.12216,-45.68865l33.66205,34.08466z"/>
   <path stroke="null" id="svg_7" fill="#F2D59F" d="m217.49992,206.26044l-99.16546,116.86465l-75.48336,-19.45057c8.23914,-14.39228 18.44697,-27.93167 30.60075,-40.24984c39.61398,-40.11113 92.14388,-59.16993 144.04807,-57.16424z"/>
   <path stroke="null" id="svg_8" fill="#E6B263" d="m185.65856,391.29441l-45.12216,45.68771l-23.23771,-23.54163l34.69782,-56.23074l33.66205,34.08466z"/>
   <path stroke="null" id="svg_9" fill="#E6B263" d="m151.99651,357.20975l-34.69782,56.23074l-7.80669,-7.89251c-9.41097,-9.54112 -12.49496,-23.73752 -7.89749,-36.38934l16.73994,-46.03356l33.66205,34.08466z"/>
   <path stroke="null" id="svg_10" fill="#5E2A41" d="m252.97063,470.97401c-2.91293,0 -5.82401,-1.12563 -8.04642,-3.37501l-134.63617,-136.32647c-4.44428,-4.4997 -4.44428,-11.79612 0,-16.29676c4.44391,-4.49876 11.64894,-4.49876 16.09469,0l134.63617,136.32834c4.44391,4.4997 4.44391,11.79518 0,16.29676c-2.22242,2.24938 -5.13627,3.37313 -8.04827,3.37313z"/>
   <path stroke="null" id="svg_11" fill="#5E2A41" d="m311.0774,335.34484c-18.74752,0 -36.36949,-7.39296 -49.62161,-20.81707c-13.25304,-13.4138 -20.55434,-31.25701 -20.55434,-50.2399c0,-18.98289 7.3013,-36.8261 20.55804,-50.24365c13.24748,-13.42036 30.86945,-20.81332 49.61605,-20.81332c18.74752,0 36.36949,7.39296 49.62161,20.81613c13.25211,13.4138 20.55341,31.25701 20.55341,50.2399c0,18.98008 -7.30037,36.82235 -20.55341,50.2399c-0.00093,0.00187 -0.00093,0.00094 -0.00463,0.00375c-13.24934,13.42224 -30.87038,20.81426 -49.61513,20.81426zm0,-119.06529c-12.66619,0 -24.57153,4.99362 -33.52228,14.06237c-8.96093,9.06687 -13.89264,21.12261 -13.89264,33.94689c0,12.82521 4.93171,24.88001 13.88801,33.94314c8.95538,9.07344 20.86072,14.06706 33.52691,14.06706c12.66527,0 24.57153,-4.99362 33.52136,-14.06237c0.00278,-0.00094 0.0037,-0.00187 0.00463,-0.00469c8.95631,-9.06313 13.88801,-21.11793 13.88801,-33.94314c0,-12.82428 -4.93171,-24.88001 -13.88801,-33.9422c-8.95446,-9.07344 -20.86072,-14.06706 -33.52599,-14.06706z"/>
   <path stroke="null" id="svg_12" fill="#5E2A41" d="m117.28851,424.96482c-2.05951,0 -4.144,-0.56422 -6.02024,-1.75264c-5.33,-3.37126 -6.95049,-10.48117 -3.62075,-15.87687l34.69754,-56.23168c3.33131,-5.39757 10.35214,-7.04056 15.68187,-3.66649c5.32972,3.37126 6.95049,10.48117 3.62103,15.87687l-34.69782,56.23168c-2.15855,3.49872 -5.86751,5.41913 -9.66163,5.41913z"/>
   <path stroke="null" id="svg_13" fill="#5E2A41" d="m140.5364,448.50458c-2.912,0 -5.82401,-1.12563 -8.04642,-3.37501c-4.44391,-4.4997 -4.44483,-11.79612 -0.00093,-16.29676l45.12124,-45.68771c4.44391,-4.49876 11.64986,-4.49876 16.09377,0c4.44391,4.4997 4.44483,11.79612 0.00093,16.29582l-45.12124,45.68771c-2.22149,2.25125 -5.13442,3.37594 -8.04735,3.37594z"/>
   <path stroke="null" id="svg_14" fill="#5E2A41" d="m163.79725,472.0359c-3.79412,0 -7.50216,-1.91947 -9.66163,-5.41819c-3.32946,-5.39757 -1.70777,-12.50655 3.62103,-15.87781l55.53447,-35.1325c5.32972,-3.37501 12.35056,-1.73202 15.68187,3.66649c3.32946,5.39757 1.70777,12.50561 -3.62103,15.87687l-55.53447,35.13344c-1.87623,1.18655 -3.95981,1.7517 -6.02024,1.7517z"/>
   <path stroke="null" id="svg_15" fill="#5E2A41" d="m217.5064,217.78289c-2.62506,0 -5.26308,-0.91475 -7.41052,-2.78267c-4.76695,-4.14729 -5.31214,-11.42123 -1.21627,-16.24989l38.36143,-45.21525c4.09495,-4.82576 11.27869,-5.37892 16.04841,-1.23069c4.76695,4.14711 5.31214,11.42151 1.21534,16.24839l-38.36235,45.21591c-2.24926,2.65239 -5.43339,4.01421 -8.63604,4.01421z"/>
   <path stroke="null" id="svg_16" fill="#5E2A41" d="m196.70677,489.10494c-11.89052,0 -23.58297,-4.70683 -32.25141,-13.49534l-7.49012,-7.58416c-0.10552,-0.09935 -0.20919,-0.19963 -0.31101,-0.30273l-54.27516,-54.95891c-12.50893,-12.68182 -16.641,-31.72375 -10.53671,-48.521l16.73994,-46.03637c0.46994,-1.29058 1.16332,-2.48556 2.04729,-3.52684l99.16546,-116.86465c4.09772,-4.82586 11.28054,-5.37789 16.04749,-1.2306c4.76695,4.14823 5.31121,11.42216 1.21534,16.24896l-97.82794,115.28633l-16.0299,44.08316c-3.05177,8.39862 -0.98301,17.92474 5.27141,24.26518l53.97758,54.65712c0.1046,0.09841 0.20919,0.1987 0.31101,0.30273l7.79465,7.89345c6.25535,6.34138 15.6541,8.43236 23.95321,5.33478l43.53009,-16.2349l158.52552,-137.89916c4.76972,-4.14823 11.95347,-3.59432 16.04841,1.2306c4.0968,4.82679 3.55161,12.1026 -1.21627,16.24896l-160.08427,139.25254c-1.02836,0.896 -2.20761,1.59893 -3.48033,2.07318l-45.45353,16.95001c-5.09647,1.90354 -10.40398,2.82766 -15.67076,2.82766z"/>
   <path stroke="null" id="svg_17" fill="#5E2A41" d="m413.05304,331.72053c-2.912,0 -5.82401,-1.12563 -8.04642,-3.37501c-4.44391,-4.4997 -4.44391,-11.79612 0,-16.29676c22.62865,-22.91181 39.42219,-49.91092 49.91595,-80.24943c13.35486,-38.61529 15.506,-79.79571 6.29978,-119.52988c-39.23799,-9.32087 -79.91162,-7.143 -118.04812,6.37905c-29.96235,10.62523 -56.62763,27.63063 -79.25535,50.54263c-4.44391,4.49848 -11.64894,4.4997 -16.09469,0c-4.44391,-4.4997 -4.44391,-11.79593 0,-16.29676c25.06396,-25.37788 54.61348,-44.21887 87.82568,-55.99643c44.56124,-15.79894 92.24367,-17.6184 137.89251,-5.25554c3.93019,1.06472 7.00047,4.17359 8.05198,8.15359c12.20894,46.22269 10.41416,94.50338 -5.19273,139.62219c-11.63135,33.62916 -30.23725,63.54873 -55.30214,88.92735c-2.22149,2.24938 -5.13349,3.37501 -8.04642,3.37501z"/>
   <path stroke="null" id="svg_18" fill="#5E2A41" d="m465.65145,247.13261c-2.91385,0 -5.82493,-1.12563 -8.04735,-3.37501l-126.23802,-127.82391c-4.44391,-4.4997 -4.44391,-11.79593 0,-16.29676c4.44761,-4.4997 11.65079,-4.49735 16.09469,0l126.23802,127.82391c4.44391,4.4997 4.44391,11.79612 0,16.29676c-2.22334,2.24938 -5.13534,3.37501 -8.04735,3.37501z"/>
   <path stroke="null" id="svg_19" fill="#5E2A41" d="m118.34557,334.64754c-0.94691,0 -1.9003,-0.11997 -2.81852,-0.35615l-75.48336,-19.45057c-3.45608,-0.89038 -6.30107,-3.37126 -7.68265,-6.6994c-1.38269,-3.32908 -1.1437,-7.1221 0.64414,-10.24592c8.85134,-15.46167 19.74988,-29.79772 32.39534,-42.61356c40.14973,-40.65379 95.72724,-62.73614 152.47798,-60.53737c6.11002,0.20244 11.00563,5.28042 11.00563,11.51589c0,6.36293 -5.08906,11.52245 -11.37403,11.52245l-0.01203,0c-0.1444,0 -0.28879,-0.00187 -0.43319,-0.00844c-50.45652,-1.95696 -99.87633,17.65951 -135.56624,53.7986c-7.60638,7.70694 -14.50041,16.03245 -20.59886,24.86127l60.00698,15.46261c5.04648,1.17999 8.81376,5.75935 8.81376,11.22628c0,6.36481 -5.08906,11.52432 -11.37495,11.52432z"/>
   <path stroke="null" id="svg_20" fill="#5E2A41" d="m272.19207,547.4173c-1.49673,0 -2.99716,-0.29898 -4.41151,-0.90163c-3.28873,-1.3993 -5.73792,-4.27944 -6.61726,-7.77723l-19.22144,-76.4433c-1.55134,-6.16799 2.12985,-12.44001 8.22044,-14.00895c6.08688,-1.57457 12.28484,2.15566 13.83618,8.32271l15.34031,61.01161c8.72027,-6.17548 16.94349,-13.15793 24.55857,-20.86112c35.68731,-36.13629 55.05407,-86.17374 53.12601,-137.27871c-0.23881,-6.35918 4.65865,-11.71083 10.93806,-11.95358c6.26923,-0.26899 11.56656,4.7162 11.80629,11.07445c2.16595,57.49508 -19.62224,113.79331 -59.78122,154.45647c-12.65879,12.80553 -26.81894,23.84249 -42.08983,32.80533c-1.75498,1.0319 -3.72747,1.55395 -5.7046,1.55395z"/>
  </g>
 </g>
</svg>