<svg width="63" height="63" viewBox="0 0 63 63" fill="none" xmlns="http://www.w3.org/2000/svg">
<g clip-path="url(#clip0_3_305)">
<path d="M52.1874 14.256L44.884 15.5438C40.3964 12.1922 34.5522 10.6288 28.5546 11.6864C17.1269 13.7014 9.4729 24.4641 11.4586 35.7258C11.8837 38.1361 12.717 40.3733 13.8746 42.3824L12.6149 42.6045C12.1319 42.6897 11.8054 43.1488 11.8893 43.6247C11.9733 44.1007 12.4371 44.4205 12.9201 44.3354L14.9014 43.986C15.1636 44.3563 15.4369 44.7174 15.7219 45.0682L10.0564 46.0672C8.99989 46.2535 8.28562 47.2577 8.46922 48.299C8.65282 49.3402 9.66748 50.0396 10.724 49.8533L19.1066 48.3752C23.6332 51.8887 29.609 53.5503 35.7455 52.4682C47.1731 50.4532 54.8271 39.6905 52.8414 28.4289C52.3954 25.8995 51.5 23.5611 50.2516 21.4768C51.2807 21.2683 51.9705 20.281 51.7898 19.2562C51.6062 18.215 50.5916 17.5155 49.5351 17.7018L47.6611 18.0322C47.3347 17.682 46.9961 17.3439 46.6468 17.0175L52.4925 15.9868C52.9753 15.9016 53.3018 15.4425 53.2179 14.9666C53.1341 14.4906 52.6702 14.1708 52.1874 14.256Z" fill="#598889"/>
<path d="M52.1874 14.256L40.3212 16.3483C36.9812 14.6694 33.0746 14.0124 29.0887 14.7153C19.3585 16.431 12.8414 25.5951 14.5322 35.1839C14.9624 37.6241 15.8836 39.8559 17.1771 41.8002L12.6149 42.6046C12.132 42.6898 11.8054 43.1489 11.8894 43.6248C11.9733 44.1008 12.4372 44.4206 12.9201 44.3355L18.3588 43.3765C18.6668 43.7422 18.9894 44.0943 19.3253 44.4329L10.0564 46.0673C8.99992 46.2536 8.28566 47.2578 8.46926 48.2991C8.65286 49.3403 9.66752 50.0397 10.724 49.8534L23.5621 47.5897C26.9916 49.4278 31.0582 50.1718 35.2115 49.4394C44.9414 47.7238 51.4587 38.5597 49.7679 28.9709C49.3162 26.409 48.3239 24.0765 46.9272 22.0656L50.2028 21.488C51.2593 21.3017 51.9734 20.2974 51.7898 19.2563C51.6062 18.2151 50.5917 17.5156 49.5352 17.7019L43.8718 18.7005C43.4688 18.3578 43.0503 18.0335 42.6183 17.7279L52.4925 15.9869C52.9753 15.9017 53.3018 15.4426 53.2179 14.9667C53.1341 14.4906 52.6702 14.1708 52.1874 14.256Z" fill="#466C6F"/>
<path d="M21.3811 32.9788C27.2426 31.9453 31.1685 26.4248 30.15 20.6484C29.1315 14.872 23.5541 11.0272 17.6926 12.0607C11.8312 13.0943 7.90518 18.6148 8.92371 24.3912C9.94224 30.1675 15.5196 34.0124 21.3811 32.9788Z" fill="#F4F4F4"/>
<path d="M24.0651 32.1382C29.2543 29.7414 31.6246 23.8016 29.5789 18.6267L10.071 27.6372C12.7585 32.5157 18.876 34.535 24.0651 32.1382Z" fill="#E0E0E0"/>
<path d="M15.7949 15.3862C16.8255 15.2045 17.5158 14.2339 17.3367 13.2182C17.2695 12.8371 17.0895 12.5039 16.8363 12.2459C16.2192 12.4072 15.6077 12.6247 15.0087 12.9015C14.5062 13.1336 14.0302 13.399 13.5821 13.6937C13.5866 13.7544 13.5939 13.8153 13.6047 13.8764C13.7837 14.8919 14.7643 15.568 15.7949 15.3862Z" fill="#E2D9D9"/>
<path d="M19.3243 14.5409C19.7184 14.4714 19.9823 14.1003 19.9138 13.7119C19.8453 13.3236 19.4704 13.0651 19.0763 13.1346C18.6822 13.204 18.4183 13.5752 18.4868 13.9636C18.5552 14.3519 18.9302 14.6104 19.3243 14.5409Z" fill="#E2D9D9"/>
<path d="M18.3699 29.9898C19.5218 29.7867 20.336 28.944 20.1886 28.1077C20.0411 27.2713 18.9878 26.7579 17.8359 26.961C16.684 27.1641 15.8698 28.0068 16.0173 28.8432C16.1647 29.6796 17.2181 30.1929 18.3699 29.9898Z" fill="#D3CDCD"/>
<path d="M12.8861 23.7705C13.8352 23.3321 14.342 22.4188 14.018 21.7306C13.694 21.0424 12.6619 20.8399 11.7128 21.2782C10.7637 21.7166 10.2569 22.6299 10.5809 23.3181C10.9049 24.0063 11.937 24.2088 12.8861 23.7705Z" fill="#E2D9D9"/>
<path d="M17.8293 33.0201C17.9067 32.8538 17.9359 32.6638 17.9018 32.4705C17.8123 31.9627 17.3219 31.6246 16.8066 31.7154C16.3661 31.7931 16.051 32.1593 16.0244 32.5811C16.6109 32.7778 17.2148 32.9252 17.8293 33.0201Z" fill="#D3CDCD"/>
<path d="M25.4978 27.7291C26.0131 27.6382 26.3582 27.1529 26.2687 26.6451C26.1791 26.1373 25.6888 25.7993 25.1736 25.8902C24.6583 25.9811 24.3132 26.4664 24.4027 26.9742C24.4922 27.482 24.9825 27.82 25.4978 27.7291Z" fill="#D3CDCD"/>
<path d="M12.0301 27.0924C12.5455 27.0015 12.8906 26.5161 12.8011 26.0083C12.7115 25.5004 12.2212 25.1624 11.7059 25.2533C11.1905 25.3441 10.8454 25.8295 10.9349 26.3373C11.0245 26.8452 11.5148 27.1832 12.0301 27.0924Z" fill="#E2D9D9"/>
<path d="M26.6905 20.762C28.0583 20.1303 28.8107 18.861 28.371 17.927C27.9313 16.993 26.466 16.748 25.0982 17.3798C23.7303 18.0116 22.9779 19.2809 23.4176 20.2148C23.8573 21.1488 25.3226 21.3938 26.6905 20.762Z" fill="#E2D9D9"/>
<path d="M22.2912 24.9485C23.534 24.7293 24.4133 23.8252 24.2553 22.9291C24.0973 22.0329 22.9618 21.4841 21.719 21.7032C20.4762 21.9224 19.5968 22.8265 19.7549 23.7226C19.9129 24.6188 21.0484 25.1676 22.2912 24.9485Z" fill="#D3CDCD"/>
<path d="M29.0852 22.0775C27.994 22.2699 27.2631 23.2976 27.4527 24.373C27.6383 25.4257 28.6376 26.1315 29.7034 25.9803C30.1259 24.7883 30.3351 23.5231 30.3087 22.2451C29.942 22.0696 29.5182 22.0011 29.0852 22.0775Z" fill="#D3CDCD"/>
<path d="M24.7984 29.8602C24.2528 29.9564 23.8873 30.4703 23.9821 31.008C24.053 31.4098 24.3609 31.711 24.7396 31.7976C25.1655 31.5643 25.5701 31.3066 25.9519 31.0261C25.9762 30.9085 25.98 30.7848 25.9579 30.6595C25.8631 30.1219 25.3439 29.764 24.7984 29.8602Z" fill="#D3CDCD"/>
<path d="M14.6159 41.8207C14.5489 41.4411 14.8093 41.0749 15.1945 41.007L25.1659 39.2488C25.5511 39.1809 25.921 39.4358 25.9879 39.8155C26.0549 40.1951 25.7945 40.5613 25.4093 40.6292L15.4379 42.3875C15.0527 42.4553 14.6828 42.2003 14.6159 41.8207Z" fill="#5AA096"/>
<path d="M38.5935 25.6789C38.4923 25.105 38.886 24.5517 39.4683 24.449L54.5409 21.7913C55.1231 21.6886 55.6821 22.074 55.7833 22.6479C55.8845 23.2216 55.491 23.775 54.9088 23.8777L39.8362 26.5354C39.254 26.6381 38.6947 26.2525 38.5935 25.6789Z" fill="#5AA096"/>
<path d="M43.023 41.006C46.145 40.4555 48.2362 37.5151 47.6937 34.4383C47.1512 31.3616 44.1804 29.3136 41.0583 29.8642C37.9363 30.4147 35.8451 33.3551 36.3876 36.4319C36.9302 39.5086 39.9009 41.5565 43.023 41.006Z" fill="#B8E3EB"/>
<path d="M47.7147 34.5722C47.6657 34.2457 47.5894 33.9283 47.4867 33.623C47.4809 33.6238 47.475 33.6242 47.4694 33.625C43.9766 34.125 40.3711 33.8023 37.0315 32.7012C36.7495 33.1996 36.5416 33.7434 36.4218 34.3181C37.9389 34.9542 39.759 34.9194 41.4523 34.846C43.509 34.7569 45.5656 34.6678 47.6223 34.5786C47.6522 34.5774 47.6833 34.5751 47.7147 34.5722Z" fill="#71B7D3"/>
<path d="M42.7971 36.9733C40.6714 36.7029 38.5192 36.3327 36.3916 36.4537C36.5209 37.175 36.788 37.848 37.1662 38.4451C38.326 38.0461 39.6116 37.96 40.8479 38.0241C42.6148 38.1157 44.3606 38.4793 46.1301 38.5068C46.3692 38.5105 46.6143 38.5045 46.8584 38.4852C47.0732 38.1572 47.2536 37.806 47.3973 37.4369C45.8607 37.3097 44.3258 37.1676 42.7971 36.9733Z" fill="#71B7D3"/>
<path d="M41.9588 29.7766C40.4117 29.8061 39.0176 30.4378 37.9999 31.4392C38.9424 31.7872 40.0347 31.8656 41.0581 31.9128C42.0071 31.9564 42.956 32 43.905 32.0438C44.813 32.0856 45.7295 32.1249 46.6303 32.0172C45.5663 30.6259 43.8649 29.7403 41.9588 29.7766Z" fill="#71B7D3"/>
<path d="M42.1228 41.0935C43.0675 41.0755 43.9551 40.8318 44.7353 40.4178C43.7779 40.4429 42.7717 40.1722 41.8293 39.9277C40.6964 39.634 39.4107 39.4157 38.3437 39.7796C39.3633 40.6226 40.6843 41.1209 42.1228 41.0935Z" fill="#71B7D3"/>
<path d="M47.581 36.8784C47.6833 36.5018 47.7475 36.1105 47.769 35.7082C46.8296 35.9961 45.7787 35.8868 44.8313 35.6195C41.5799 34.7024 39.1627 35.6982 36.3065 35.2616C36.3032 35.3553 36.302 35.4494 36.3034 35.544C36.3054 35.6793 36.3138 35.8131 36.3253 35.9459C37.2261 35.7867 38.1681 35.8367 39.088 35.8905C41.9378 36.0575 44.8116 36.2294 47.581 36.8784Z" fill="#71B7D3"/>
<path d="M14.6752 35.9951C15.1602 35.9096 15.485 35.4528 15.4007 34.9749C15.3165 34.497 14.855 34.1788 14.37 34.2644C13.885 34.3499 13.5602 34.8066 13.6445 35.2846C13.7287 35.7625 14.1902 36.0806 14.6752 35.9951Z" fill="#66B2B2"/>
<path d="M21.1105 38.2066C22.1411 38.0249 22.8314 37.0543 22.6523 36.0386C22.4732 35.023 21.4926 34.3469 20.462 34.5287C19.4314 34.7104 18.7411 35.681 18.9202 36.6967C19.0992 37.7123 20.0799 38.3884 21.1105 38.2066Z" fill="#66B2B2"/>
<path d="M45.5138 11.7342C46.6734 11.5297 47.4501 10.4375 47.2486 9.29468C47.0471 8.15187 45.9437 7.3912 44.784 7.59567C43.6244 7.80015 42.8477 8.89234 43.0492 10.0352C43.2507 11.178 44.3541 11.9386 45.5138 11.7342Z" fill="#66B2B2"/>
<path d="M48.5327 48.1052C49.6923 47.9008 50.4691 46.8086 50.2676 45.6658C50.0661 44.523 48.9626 43.7623 47.803 43.9668C46.6433 44.1712 45.8666 45.2634 46.0681 46.4062C46.2696 47.549 47.3731 48.3097 48.5327 48.1052Z" fill="#66B2B2"/>
<path d="M48.99 29.0523C49.475 28.9668 49.7999 28.51 49.7156 28.032C49.6313 27.554 49.1698 27.2358 48.6848 27.3213C48.1997 27.4069 47.8748 27.8637 47.9591 28.3417C48.0434 28.8197 48.5049 29.1378 48.99 29.0523Z" fill="#66B2B2"/>
<path d="M39.3616 45.6962C39.8467 45.6107 40.1715 45.1538 40.0873 44.6759C40.003 44.1979 39.5415 43.8797 39.0564 43.9652C38.5714 44.0508 38.2465 44.5076 38.3308 44.9856C38.4151 45.4636 38.8766 45.7817 39.3616 45.6962Z" fill="#66B2B2"/>
<path d="M32.1314 12.3943C32.6164 12.3087 32.9413 11.8519 32.857 11.3739C32.7728 10.8959 32.3112 10.5778 31.8262 10.6633C31.3412 10.7488 31.0163 11.2056 31.1006 11.6836C31.1849 12.1616 31.6464 12.4798 32.1314 12.3943Z" fill="#66B2B2"/>
<path d="M36.4814 29.3618C36.9665 29.2762 37.2914 28.8194 37.2071 28.3414C37.1228 27.8634 36.6613 27.5453 36.1762 27.6308C35.6912 27.7163 35.3663 28.1731 35.4506 28.6511C35.5349 29.1291 35.9964 29.4473 36.4814 29.3618Z" fill="#66B2B2"/>
<path d="M31.5817 18.753L8.99539 29.1855C8.49339 29.4174 7.89235 29.2029 7.65984 28.7088L7.60775 28.5983C7.37514 28.1043 7.59563 27.5104 8.09763 27.2784L30.684 16.8461C31.1859 16.6142 31.787 16.8287 32.0195 17.3227L32.0716 17.4333C32.3042 17.9273 32.0837 18.5212 31.5817 18.753Z" fill="#52C9D5"/>
<path d="M8.99539 29.1854L31.5816 18.7531C32.0719 18.5266 32.2923 17.9554 32.0859 17.4688L7.67793 28.7425C7.9218 29.212 8.5053 29.4118 8.99539 29.1854Z" fill="#49BAC0"/>
<path d="M31.4224 47.2076C33.0895 46.9136 34.2062 45.3435 33.9165 43.7005C33.6268 42.0576 32.0405 40.964 30.3733 41.258C28.7062 41.5519 27.5895 43.1221 27.8792 44.7651C28.1689 46.408 29.7552 47.5016 31.4224 47.2076Z" fill="#FF7143"/>
<path d="M29.407 41.5999C29.3948 41.6068 29.3831 41.6141 29.3711 41.6211L32.3519 46.8848C32.3642 46.8782 32.3766 46.8723 32.3888 46.8655C33.867 46.0462 34.3981 44.2032 33.5745 42.7491C32.7511 41.295 30.8853 40.7805 29.407 41.5999Z" fill="#E5603C"/>
<path d="M37.7834 7.66352L38.5158 8.64944L39.7572 8.60933L39.0295 9.60566L39.4458 10.7579L38.2637 10.3876L37.2796 11.1398L37.2767 9.91473L36.2521 9.22738L37.4324 8.84047L37.7834 7.66352Z" fill="#FFD326"/>
<path d="M53.2827 43.7209L54.0151 44.7069L55.2565 44.6667L54.5288 45.6631L54.9451 46.8152L53.763 46.445L52.7788 47.1971L52.776 45.9721L51.7514 45.2848L52.9317 44.898L53.2827 43.7209Z" fill="#FFD326"/>
<path d="M54.3011 25.1L55.0336 26.0859L56.275 26.0458L55.5473 27.0422L55.9636 28.1942L54.7814 27.8241L53.7973 28.5762L53.7945 27.3512L52.7699 26.6639L53.9502 26.277L54.3011 25.1Z" fill="#FFD326"/>
<path d="M8.95118 38.7136L9.68353 39.6996L10.925 39.6594L10.1972 40.6558L10.6136 41.8078L9.43151 41.4377L8.44727 42.1898L8.44453 40.9648L7.41984 40.2775L8.60035 39.8906L8.95118 38.7136Z" fill="#FFD326"/>
</g>
<defs>
<clipPath id="clip0_3_305">
<rect width="54.227" height="53.4397" fill="white" transform="translate(0 9.41644) rotate(-10)"/>
</clipPath>
</defs>
</svg>
